<?xml version="1.0" encoding="utf-8"?>
<!-- Generator: Adobe Illustrator 25.2.0, SVG Export Plug-In . SVG Version: 6.00 Build 0)  -->
<svg version="1.1" id="Calque_1" xmlns="http://www.w3.org/2000/svg" xmlns:xlink="http://www.w3.org/1999/xlink" x="0px" y="0px"
	 viewBox="0 0 1366 768" style="enable-background:new 0 0 1366 768;" xml:space="preserve">
<style type="text/css">
	.st0{fill:#FFFFFF;}
</style>
<path class="st0" d="M286,578.4c-0.7-0.5-1.5-0.9-2.3-1.2c-0.8-0.4-1.6-0.5-2.5-0.7c-4.3-0.9-8.9,0.5-12,3.7c-0.6,0.6-1.2,1.3-1.6,2
	c-0.5,0.7-0.9,1.5-1.2,2.3c-0.2,0.4-0.3,0.6-0.4,1h-92.7c-0.1-0.4-0.2-0.6-0.4-1c-0.4-0.8-0.7-1.6-1.2-2.3c-0.5-0.7-1-1.4-1.6-2
	c-0.6-0.6-1.3-1.2-2-1.7c-0.7-0.5-1.5-0.9-2.3-1.2c-0.8-0.4-1.6-0.5-2.5-0.7c-1.7-0.4-3.5-0.4-5.2,0c-0.8,0.2-1.6,0.5-2.5,0.7
	c-0.8,0.4-1.6,0.7-2.3,1.2c-0.7,0.5-1.4,1-2,1.7c-0.6,0.6-1.2,1.3-1.6,2c-0.5,0.7-0.9,1.5-1.2,2.3c-0.4,0.8-0.5,1.6-0.7,2.5
	c-0.2,0.8-0.3,1.7-0.3,2.6c0,0.9,0.1,1.7,0.3,2.7c0.2,0.8,0.5,1.6,0.7,2.5c0.4,0.8,0.7,1.6,1.2,2.3c0.5,0.7,1,1.4,1.6,2
	c0.6,0.6,1.3,1.2,2,1.6c0.7,0.5,1.5,0.9,2.3,1.2c0.8,0.4,1.6,0.6,2.5,0.7c0.8,0.2,1.7,0.3,2.6,0.3c0.9,0,1.7-0.1,2.6-0.3
	c0.8-0.2,1.7-0.5,2.5-0.7c0.8-0.4,1.6-0.7,2.3-1.2c0.7-0.5,1.4-1,2-1.6c0.6-0.6,1.2-1.3,1.6-2c0.5-0.7,0.9-1.5,1.2-2.3
	c0.2-0.4,0.3-0.6,0.4-1h92.6c0.1,0.4,0.2,0.6,0.4,1c0.4,0.8,0.7,1.6,1.2,2.3c0.5,0.7,1,1.4,1.6,2c2.5,2.5,6,3.8,9.4,3.8
	c3.5,0,6.9-1.4,9.3-3.8c0.6-0.6,1.2-1.3,1.6-2c0.5-0.7,0.9-1.5,1.2-2.3c0.4-0.8,0.5-1.7,0.7-2.5c0.2-0.8,0.3-1.7,0.3-2.7
	c0-3.5-1.5-6.9-3.9-9.3C287.5,579.5,286.8,578.9,286,578.4z"/>
<path class="st0" d="M139.1,349.1c2,1.1,4.2,1.6,6.4,1.6c4.7,0,9.3-2.5,11.6-6.9c0.5-0.7,0.7-1.6,1-2.3h123.2c0.3,0.8,0.5,1.6,1,2.3
	c2.5,4.4,7,6.9,11.6,6.9c2.2,0,4.4-0.5,6.4-1.6c6.4-3.6,8.8-11.6,5.2-18.1c-3.6-6.4-11.6-8.8-18.1-5.2c-3.1,1.7-5.2,4.5-6.2,7.5
	H158.1c-1-3.1-3.1-5.9-6.2-7.5c-6.4-3.6-14.5-1.2-18.1,5.2C130.3,337.5,132.7,345.5,139.1,349.1z"/>
<path class="st0" d="M168.2,306.2c2.7,2.8,6.2,4.4,9.9,4.4c3.2,0,6.4-1.1,8.9-3.4c1.8-1.6,3-3.6,3.7-5.8h58.1
	c0.7,2.1,1.9,4.1,3.7,5.8c2.6,2.3,5.8,3.4,9,3.4c3.7,0,7.2-1.5,9.8-4.4c4.9-5.4,4.5-13.8-0.9-18.8c-5.4-4.9-13.8-4.5-18.8,0.9
	c-1.3,1.5-2.2,3.1-2.8,4.9h-58c-0.5-1.7-1.5-3.4-2.7-4.9c-4.9-5.4-13.4-5.9-18.8-0.9C163.6,292.4,163.3,300.7,168.2,306.2z"/>
<path class="st0" d="M266.7,221.3c-5.6-4.8-14-3.9-18.7,1.6c-1.1,1.4-1.9,2.8-2.5,4.4h-51.7c-0.5-1.6-1.3-3.1-2.5-4.4
	c-4.7-5.6-13.1-6.4-18.7-1.6c-5.7,4.7-6.4,13.1-1.7,18.7c2.7,3.1,6.4,4.8,10.2,4.8c3,0,6-1,8.5-3.1c2-1.6,3.4-3.8,4.1-6.1h51.8
	c0.7,2.3,2.1,4.5,4.1,6.1c2.5,2.1,5.5,3.1,8.5,3.1c3.8,0,7.6-1.6,10.3-4.8C273.1,234.4,272.4,226.1,266.7,221.3z"/>
<path class="st0" d="M211.5,255.1c-5.9,4.3-7.2,12.6-2.8,18.6c2.7,3.6,6.7,5.4,10.7,5.4c2.7,0,5.5-0.8,7.9-2.6
	c5.9-4.3,7.2-12.6,2.8-18.6C225.7,252,217.4,250.8,211.5,255.1z"/>
<path class="st0" d="M219.4,521.6c4.1,0,8.2-1.9,10.7-5.4c4.4-6,3-14.2-2.8-18.6c-5.9-4.4-14.2-3-18.6,2.8c-4.3,6-3,14.2,2.8,18.6
	C213.9,520.7,216.7,521.6,219.4,521.6z"/>
<path class="st0" d="M307.4,373.8c-6,0-11,3.8-12.7,9.2H144.7c-1.6-5.1-6.5-9-12.2-9.2c-7.3-0.2-13.5,5.5-13.7,12.9
	c-0.2,7.3,5.6,13.5,12.9,13.7c0.1,0,0.3,0,0.4,0c5.9,0,10.9-3.8,12.6-9.3h149.9c1.7,5.3,6.7,9.2,12.6,9.3h0.1
	c7.3,0,13.3-5.9,13.3-13.2C320.7,379.8,314.7,373.8,307.4,373.8z"/>
<path class="st0" d="M300.3,425c-6.4-3.6-14.5-1.2-18.1,5.2c-0.5,0.7-0.7,1.6-1,2.3H158.1c-0.3-0.8-0.5-1.6-1-2.3
	c-3.6-6.4-11.6-8.8-18.1-5.2c-6.4,3.6-8.8,11.6-5.2,18.1c2.5,4.4,7,6.9,11.6,6.9c2.2,0,4.4-0.5,6.4-1.6c3.1-1.7,5.2-4.5,6.2-7.5
	h123.1c1,3.1,3.1,5.9,6.2,7.5c2,1.1,4.2,1.6,6.4,1.6c4.7,0,9.3-2.5,11.6-6.9C309.1,436.6,306.7,428.6,300.3,425z"/>
<path class="st0" d="M271.2,467.9c-4.9-5.4-13.4-5.9-18.8-0.9c-1.8,1.6-3,3.7-3.8,5.8h-57.9c-0.7-2.1-1.9-4.1-3.8-5.8
	c-5.4-4.9-13.8-4.5-18.8,0.9c-4.9,5.4-4.5,13.8,0.9,18.8c2.6,2.3,5.7,3.5,8.9,3.5c3.7,0,7.2-1.5,9.9-4.4c1.3-1.5,2.2-3.1,2.7-4.9
	h57.9c0.5,1.7,1.5,3.4,2.7,4.9c2.7,2.9,6.2,4.4,9.9,4.4c3.2,0,6.4-1.1,8.9-3.5C275.7,481.7,276.1,473.3,271.2,467.9z"/>
<path class="st0" d="M189.6,532.4c-5.7-4.7-14-3.9-18.7,1.7c-4.7,5.6-3.9,14,1.6,18.7c2.5,2.1,5.5,3.1,8.5,3.1
	c3.8,0,7.6-1.7,10.3-4.8c1.1-1.4,1.9-2.8,2.5-4.4h51.9c0.5,1.6,1.3,3.1,2.5,4.4c2.7,3.1,6.4,4.8,10.3,4.8c3,0,6-1,8.5-3.1
	c5.6-4.7,6.4-13.1,1.7-18.7c-4.7-5.6-13.1-6.4-18.7-1.6c-2,1.6-3.4,3.8-4.1,6.1h-52.1C193,536.1,191.7,534,189.6,532.4z"/>
<path class="st0" d="M148.5,189.7c0.4,0.8,0.7,1.6,1.2,2.3c0.5,0.7,1,1.4,1.6,2c0.5,0.6,1.3,1.2,2,1.6c0.7,0.5,1.5,0.9,2.3,1.2
	c0.8,0.4,1.6,0.5,2.5,0.7c0.8,0.2,1.7,0.3,2.6,0.3c0.9,0,1.7-0.1,2.6-0.3c0.8-0.2,1.7-0.5,2.5-0.7c0.8-0.4,1.6-0.7,2.3-1.2
	c0.7-0.5,1.4-1,2-1.6s1.2-1.3,1.6-2c0.5-0.7,0.9-1.5,1.2-2.3c0.2-0.4,0.3-0.6,0.4-1H266c0.1,0.4,0.2,0.6,0.4,1
	c0.4,0.8,0.7,1.6,1.2,2.3c0.5,0.7,1,1.4,1.6,2c0.6,0.6,1.3,1.2,2,1.6c0.7,0.5,1.5,0.9,2.3,1.2c0.8,0.4,1.6,0.5,2.5,0.7
	c0.8,0.2,1.7,0.3,2.6,0.3c3.5,0,6.9-1.5,9.3-3.9c0.6-0.6,1.2-1.3,1.6-2c0.5-0.7,0.9-1.5,1.2-2.3c0.4-0.8,0.5-1.6,0.7-2.5
	c0.2-0.8,0.3-1.7,0.3-2.6c0-0.9-0.1-1.7-0.3-2.7c-0.2-0.8-0.5-1.6-0.7-2.5c-0.4-0.8-0.7-1.6-1.2-2.3c-0.5-0.7-1-1.4-1.6-2
	c-3-3.1-7.7-4.5-12-3.7c-0.8,0.2-1.7,0.5-2.5,0.7c-0.8,0.4-1.6,0.7-2.3,1.2c-0.7,0.5-1.4,1-2,1.6c-0.6,0.6-1.2,1.3-1.6,2
	s-0.9,1.5-1.2,2.3c-0.2,0.4-0.3,0.6-0.4,1h-92.5c-0.1-0.4-0.2-0.6-0.4-1c-0.4-0.8-0.7-1.6-1.2-2.3c-0.5-0.7-1-1.4-1.6-2
	c-0.6-0.6-1.3-1.2-2-1.6c-0.7-0.5-1.5-0.9-2.3-1.2c-0.8-0.4-1.6-0.5-2.5-0.7c-1.7-0.4-3.5-0.4-5.2,0c-0.8,0.2-1.6,0.5-2.5,0.7
	c-0.8,0.4-1.6,0.7-2.3,1.2c-0.7,0.5-1.4,1-2,1.6c-0.6,0.6-1.2,1.3-1.6,2s-0.9,1.5-1.2,2.3c-0.4,0.8-0.5,1.6-0.7,2.5
	c-0.2,0.8-0.3,1.7-0.3,2.7c0,0.8,0.1,1.7,0.3,2.6C147.9,188,148.1,188.9,148.5,189.7z"/>
<path class="st0" d="M536.8,474.3c-20.6,0-39-4.4-55.2-13.2c-16.2-9.1-29-22.3-38.3-39.6c-9.3-17.3-14-38.5-14-63.5v-67.6
	c0-37.7,10.3-66.4,30.9-86.2c20.6-20.1,48.5-30.1,83.7-30.1c34.6,0,61.3,9.5,80,28.4c18.7,18.7,28,43.8,28,75.5v2.1h-44.1v-3.3
	c0-11.8-2.3-22.4-7-31.7c-4.7-9.6-11.7-17.2-21-22.7c-9.3-5.5-21.3-8.2-35.9-8.2c-22,0-39.2,6.7-51.5,20.2
	c-12.4,13.2-18.6,31.6-18.6,55.2v69.3c0,23.4,6.2,41.9,18.6,55.7c12.4,13.5,29.7,20.2,52,20.2c22,0,38.1-6,48.2-18.1
	c10.2-12.1,15.3-27.8,15.3-47v-5.4h-77.5v-38.3h121.6v142.7h-41.2v-29.3H604c-2.5,5.2-6.2,10.6-11.1,16.1
	c-4.7,5.5-11.5,10-20.6,13.6C563.4,472.5,551.6,474.3,536.8,474.3z"/>
<path class="st0" d="M807.3,474.3c-21.7,0-41-3.8-57.7-11.5c-16.8-7.7-30-19-39.6-33.8c-9.3-15.1-14-33.4-14-54.8v-10.3h44.1v10.3
	c0,20.3,6,35.6,18.1,45.8c12.4,10.2,28.7,15.3,49.1,15.3c20.6,0,36.1-4.3,46.6-12.8c10.4-8.8,15.7-20.1,15.7-33.8
	c0-9.1-2.5-16.5-7.4-22.3c-4.9-5.8-12-10.3-21-13.6c-9.1-3.6-19.9-6.9-32.6-9.9l-15.3-3.7c-18.4-4.4-34.5-9.8-48.2-16.1
	c-13.5-6.6-23.9-15.3-31.3-26c-7.4-10.7-11.1-24.5-11.1-41.2c0-17,4.1-31.6,12.4-43.7c8.5-12.1,20.2-21.4,35-28
	c14.8-6.6,32.3-9.9,52.4-9.9c20.1,0,37.9,3.4,53.6,10.3c15.9,6.9,28.4,17,37.5,30.5c9.1,13.5,13.6,30.4,13.6,50.7v14.8h-44.1v-14.8
	c0-12.4-2.6-22.4-7.8-30.1c-4.9-7.7-12-13.3-21-16.9c-9.1-3.6-19.7-5.4-31.7-5.4c-17.6,0-31.3,3.7-41.2,11.1
	c-9.6,7.1-14.4,17.2-14.4,30.1c0,8.8,2.1,16.1,6.2,21.9c4.4,5.5,10.7,10,19,13.6c8.2,3.6,18.6,6.7,30.9,9.5l15.3,3.7
	c18.7,4.1,35.2,9.5,49.5,16.1c14.3,6.3,25.6,15,33.8,26c8.2,11,12.4,25.2,12.4,42.5c0,17.3-4.4,32.4-13.2,45.4
	c-8.5,12.9-20.8,23.1-36.7,30.5C847.8,470.7,829,474.3,807.3,474.3z"/>
<path class="st0" d="M948.1,468.5v-39.6h38.8V219.5h-38.8v-39.6h146.4c17.3,0,32.4,3,45.4,9.1c12.9,5.8,23,14.2,30.1,25.2
	c7.4,10.7,11.1,23.5,11.1,38.3v4.1c0,13.2-2.5,24.1-7.4,32.6c-4.9,8.5-11,15.1-18.1,19.8c-6.9,4.7-13.5,8-19.8,9.9v6.6
	c6.3,1.6,13.1,4.9,20.2,9.9c7.4,4.7,13.6,11.3,18.6,19.8c5.2,8.5,7.8,19.7,7.8,33.4v4.1c0,15.9-3.7,29.5-11.1,40.8
	c-7.4,11.3-17.7,19.9-30.9,26c-12.9,6-27.9,9.1-44.9,9.1H948.1z M1031.8,428.1h58.1c14.8,0,26.5-3.6,35-10.7
	c8.5-7.1,12.8-17,12.8-29.7V384c0-12.6-4.3-22.5-12.8-29.7c-8.2-7.1-19.9-10.7-35-10.7h-58.1V428.1z M1031.8,302.8h58.1
	c14,0,25.3-3.4,33.8-10.3c8.5-7.1,12.8-16.8,12.8-28.9v-4.1c0-12.1-4.3-21.6-12.8-28.4c-8.2-7.1-19.5-10.7-33.8-10.7h-58.1V302.8z"
	/>
<path class="st0" d="M466.8,574.1h18.6v26.6c-2.9,0.9-5.8,1.6-8.8,2.1c-3,0.5-6.5,0.7-10.4,0.7c-8.3,0-14.7-2.5-19.4-7.4
	c-4.6-4.9-6.9-11.9-6.9-20.8c0-5.7,1.1-10.7,3.4-14.9c2.3-4.3,5.6-7.6,9.9-9.8c4.3-2.3,9.3-3.4,15.1-3.4c5.8,0,11.3,1.1,16.3,3.2
	l-2.5,5.6c-4.9-2.1-9.7-3.1-14.3-3.1c-6.7,0-11.9,2-15.6,6c-3.7,4-5.6,9.5-5.6,16.5c0,7.4,1.8,13,5.4,16.8c3.6,3.8,8.9,5.7,15.9,5.7
	c3.8,0,7.5-0.4,11.1-1.3v-16.9h-12.2V574.1z"/>
<path class="st0" d="M523,602.7l-1.2-5.8h-0.3c-2,2.6-4.1,4.3-6.1,5.2c-2,0.9-4.6,1.3-7.6,1.3c-4.1,0-7.3-1-9.6-3.1
	c-2.3-2.1-3.4-5.1-3.4-9c0-8.3,6.6-12.6,19.9-13l7-0.2v-2.5c0-3.2-0.7-5.6-2.1-7.1c-1.4-1.5-3.6-2.3-6.6-2.3c-3.4,0-7.3,1-11.6,3.1
	l-1.9-4.8c2-1.1,4.2-2,6.6-2.6c2.4-0.6,4.8-0.9,7.3-0.9c4.9,0,8.5,1.1,10.9,3.3c2.4,2.2,3.6,5.7,3.6,10.5v28H523z M508.9,598.4
	c3.9,0,6.9-1.1,9.1-3.2c2.2-2.1,3.3-5.1,3.3-8.9v-3.7l-6.2,0.3c-4.9,0.2-8.5,1-10.7,2.3c-2.2,1.4-3.3,3.5-3.3,6.3c0,2.2,0.7,4,2,5.1
	C504.6,597.8,506.5,598.4,508.9,598.4z"/>
<path class="st0" d="M546.6,602.7h-6.2v-58.3h6.2V602.7z"/>
<path class="st0" d="M585.1,602.7l-1.2-5.8h-0.3c-2,2.6-4.1,4.3-6.1,5.2c-2,0.9-4.6,1.3-7.6,1.3c-4.1,0-7.3-1-9.6-3.1
	c-2.3-2.1-3.4-5.1-3.4-9c0-8.3,6.6-12.6,19.9-13l7-0.2v-2.5c0-3.2-0.7-5.6-2.1-7.1c-1.4-1.5-3.6-2.3-6.6-2.3c-3.4,0-7.3,1-11.6,3.1
	l-1.9-4.8c2-1.1,4.2-2,6.6-2.6c2.4-0.6,4.8-0.9,7.3-0.9c4.9,0,8.5,1.1,10.9,3.3c2.4,2.2,3.6,5.7,3.6,10.5v28H585.1z M571,598.4
	c3.9,0,6.9-1.1,9.1-3.2c2.2-2.1,3.3-5.1,3.3-8.9v-3.7l-6.2,0.3c-4.9,0.2-8.5,1-10.7,2.3c-2.2,1.4-3.3,3.5-3.3,6.3c0,2.2,0.7,4,2,5.1
	C566.7,597.8,568.6,598.4,571,598.4z"/>
<path class="st0" d="M612.4,581.7l-14.3-20h7.1l10.8,15.7l10.8-15.7h7l-14.3,20l15,21h-7L616,586.1l-11.6,16.6h-7L612.4,581.7z"/>
<path class="st0" d="M636.2,561.7h6.7l9,23.4c2,5.3,3.2,9.2,3.7,11.6h0.3c0.3-1.3,1-3.4,2-6.5c1.1-3.1,4.4-12.6,10.2-28.5h6.7
	l-17.6,46.7c-1.7,4.6-3.8,7.9-6.1,9.8c-2.3,1.9-5.2,2.9-8.6,2.9c-1.9,0-3.8-0.2-5.6-0.6v-5c1.4,0.3,2.9,0.5,4.6,0.5
	c4.3,0,7.3-2.4,9.1-7.2l2.3-5.8L636.2,561.7z"/>
<path class="st0" d="M733.2,588.2c0,4.8-1.7,8.6-5.2,11.3c-3.5,2.7-8.2,4-14.2,4c-6.5,0-11.5-0.8-15-2.5v-6.1
	c2.2,0.9,4.7,1.7,7.3,2.2c2.6,0.5,5.3,0.8,7.9,0.8c4.2,0,7.4-0.8,9.6-2.4c2.1-1.6,3.2-3.9,3.2-6.7c0-1.9-0.4-3.4-1.2-4.6
	c-0.7-1.2-2-2.3-3.8-3.4c-1.8-1-4.5-2.2-8.1-3.5c-5.1-1.8-8.7-4-10.9-6.5c-2.2-2.5-3.3-5.8-3.3-9.8c0-4.2,1.6-7.6,4.8-10.1
	c3.2-2.5,7.4-3.7,12.6-3.7c5.4,0,10.5,1,15,3l-2,5.5c-4.5-1.9-8.9-2.8-13.2-2.8c-3.4,0-6,0.7-7.9,2.2c-1.9,1.4-2.8,3.5-2.8,6
	c0,1.9,0.4,3.5,1,4.7c0.7,1.2,1.9,2.3,3.5,3.3c1.7,1,4.2,2.1,7.6,3.3c5.7,2,9.7,4.2,11.8,6.6C732.1,581.4,733.2,584.4,733.2,588.2z"
	/>
<path class="st0" d="M776.9,602.7l-7.5-24.1c-0.5-1.5-1.4-4.8-2.7-10h-0.3c-1,4.4-1.9,7.7-2.6,10.1l-7.8,24h-7.2l-11.2-41h6.5
	c2.6,10.3,4.7,18.2,6,23.6c1.4,5.4,2.2,9,2.4,10.9h0.3c0.3-1.4,0.7-3.3,1.3-5.5c0.6-2.3,1.2-4.1,1.6-5.4l7.5-23.6h6.7l7.3,23.6
	c1.4,4.3,2.3,7.9,2.8,10.8h0.3c0.1-0.9,0.4-2.3,0.8-4.2c0.4-1.9,3.1-11.9,7.8-30.2h6.4l-11.3,41H776.9z"/>
<path class="st0" d="M809.3,602.7h-6.2v-41h6.2V602.7z M802.6,550.6c0-1.4,0.4-2.5,1-3.1c0.7-0.7,1.6-1,2.6-1c1,0,1.9,0.3,2.6,1
	c0.7,0.7,1.1,1.7,1.1,3.1s-0.4,2.4-1.1,3.1c-0.7,0.7-1.6,1-2.6,1c-1,0-1.9-0.3-2.6-1C802.9,553,802.6,552,802.6,550.6z"/>
<path class="st0" d="M849,591.5c0,3.8-1.4,6.8-4.3,8.8c-2.8,2.1-6.8,3.1-12,3.1c-5.4,0-9.7-0.9-12.7-2.6v-5.8c2,1,4.1,1.8,6.3,2.4
	c2.3,0.6,4.5,0.9,6.6,0.9c3.2,0,5.7-0.5,7.5-1.5c1.7-1,2.6-2.6,2.6-4.8c0-1.6-0.7-3-2.1-4.1c-1.4-1.1-4.1-2.5-8.1-4
	c-3.8-1.4-6.5-2.7-8.2-3.7c-1.6-1.1-2.8-2.3-3.6-3.6c-0.8-1.4-1.2-3-1.2-4.8c0-3.3,1.4-6,4.1-7.9c2.7-1.9,6.5-2.9,11.2-2.9
	c4.4,0,8.7,0.9,13,2.7l-2.2,5.1c-4.1-1.7-7.9-2.5-11.2-2.5c-2.9,0-5.2,0.5-6.7,1.4c-1.5,0.9-2.2,2.2-2.2,3.8c0,1.1,0.3,2,0.8,2.8
	c0.6,0.8,1.5,1.5,2.7,2.2c1.2,0.7,3.6,1.7,7.2,3c4.9,1.8,8.2,3.6,9.8,5.4C848.1,586.6,849,588.8,849,591.5z"/>
<path class="st0" d="M885.6,591.5c0,3.8-1.4,6.8-4.3,8.8c-2.8,2.1-6.8,3.1-12,3.1c-5.4,0-9.7-0.9-12.7-2.6v-5.8c2,1,4.1,1.8,6.3,2.4
	c2.3,0.6,4.5,0.9,6.6,0.9c3.2,0,5.7-0.5,7.5-1.5c1.7-1,2.6-2.6,2.6-4.8c0-1.6-0.7-3-2.1-4.1c-1.4-1.1-4.1-2.5-8.1-4
	c-3.8-1.4-6.5-2.7-8.2-3.7c-1.6-1.1-2.8-2.3-3.6-3.6c-0.8-1.4-1.2-3-1.2-4.8c0-3.3,1.4-6,4.1-7.9c2.7-1.9,6.5-2.9,11.2-2.9
	c4.4,0,8.7,0.9,13,2.7l-2.2,5.1c-4.1-1.7-7.9-2.5-11.2-2.5c-2.9,0-5.2,0.5-6.7,1.4c-1.5,0.9-2.2,2.2-2.2,3.8c0,1.1,0.3,2,0.8,2.8
	c0.6,0.8,1.5,1.5,2.7,2.2c1.2,0.7,3.6,1.7,7.2,3c4.9,1.8,8.2,3.6,9.9,5.4C884.8,586.6,885.6,588.8,885.6,591.5z"/>
<path class="st0" d="M916.6,548h15.5c7.3,0,12.5,1.1,15.8,3.3c3.2,2.2,4.9,5.6,4.9,10.3c0,3.2-0.9,5.9-2.7,8.1
	c-1.8,2.1-4.4,3.5-7.9,4.1v0.4c8.3,1.4,12.5,5.8,12.5,13.1c0,4.9-1.7,8.7-5,11.5c-3.3,2.7-7.9,4.1-13.9,4.1h-19.1V548z M923,571.4
	h10.5c4.5,0,7.7-0.7,9.7-2.1c2-1.4,3-3.8,3-7.2c0-3.1-1.1-5.3-3.3-6.6c-2.2-1.4-5.7-2.1-10.5-2.1H923V571.4z M923,576.8v20.5h11.4
	c4.4,0,7.7-0.8,10-2.5c2.2-1.7,3.4-4.4,3.4-8.1c0-3.4-1.1-5.9-3.4-7.5c-2.3-1.6-5.7-2.4-10.4-2.4H923z"/>
<path class="st0" d="M1000.9,582.2c0,6.7-1.7,11.9-5.1,15.7c-3.4,3.7-8,5.6-14,5.6c-3.7,0-6.9-0.9-9.8-2.6c-2.8-1.7-5-4.2-6.6-7.4
	c-1.5-3.2-2.3-7-2.3-11.3c0-6.7,1.7-11.9,5-15.6c3.3-3.7,8-5.6,13.9-5.6c5.7,0,10.3,1.9,13.7,5.7
	C999.2,570.5,1000.9,575.7,1000.9,582.2z M969.6,582.2c0,5.2,1,9.2,3.1,12c2.1,2.7,5.2,4.1,9.3,4.1c4.1,0,7.2-1.4,9.3-4.1
	c2.1-2.7,3.2-6.8,3.2-12c0-5.2-1.1-9.2-3.2-11.9c-2.1-2.7-5.2-4.1-9.3-4.1c-4.1,0-7.1,1.3-9.2,4
	C970.6,572.9,969.6,576.9,969.6,582.2z"/>
<path class="st0" d="M1017.7,561.7v26.6c0,3.3,0.8,5.8,2.3,7.5c1.5,1.6,3.9,2.5,7.2,2.5c4.3,0,7.4-1.2,9.4-3.5c2-2.3,3-6.2,3-11.5
	v-21.6h6.2v41h-5.1l-0.9-5.5h-0.3c-1.3,2-3,3.6-5.3,4.6c-2.2,1.1-4.8,1.6-7.7,1.6c-5,0-8.7-1.2-11.2-3.6c-2.5-2.4-3.7-6.2-3.7-11.4
	v-26.9H1017.7z"/>
<path class="st0" d="M1077.7,560.9c1.8,0,3.5,0.2,4.9,0.5l-0.9,5.8c-1.7-0.4-3.2-0.6-4.5-0.6c-3.3,0-6.2,1.4-8.5,4
	c-2.3,2.7-3.5,6.1-3.5,10.1v22h-6.2v-41h5.1l0.7,7.6h0.3c1.5-2.7,3.4-4.7,5.5-6.2C1072.7,561.7,1075.1,560.9,1077.7,560.9z"/>
<path class="st0" d="M1118.2,597.2h-0.3c-2.9,4.2-7.2,6.3-12.9,6.3c-5.4,0-9.5-1.8-12.5-5.5c-3-3.7-4.5-8.9-4.5-15.7
	s1.5-12,4.5-15.8c3-3.7,7.2-5.6,12.5-5.6c5.6,0,9.8,2,12.8,6.1h0.5l-0.3-3l-0.1-2.9v-16.7h6.2v58.3h-5.1L1118.2,597.2z
	 M1105.8,598.3c4.2,0,7.3-1.1,9.2-3.4c1.9-2.3,2.9-6.1,2.9-11.2v-1.3c0-5.8-1-10-2.9-12.4c-1.9-2.5-5-3.7-9.3-3.7
	c-3.6,0-6.4,1.4-8.4,4.3c-1.9,2.8-2.9,6.8-2.9,12c0,5.2,1,9.2,2.9,11.9C1099.2,596.9,1102,598.3,1105.8,598.3z"/>
<path class="st0" d="M1143.5,602.7h-6.2v-41h6.2V602.7z M1136.8,550.6c0-1.4,0.3-2.5,1.1-3.1c0.7-0.7,1.6-1,2.6-1c1,0,1.9,0.3,2.6,1
	c0.7,0.7,1.1,1.7,1.1,3.1s-0.4,2.4-1.1,3.1c-0.7,0.7-1.6,1-2.6,1c-1,0-1.9-0.3-2.6-1C1137.1,553,1136.8,552,1136.8,550.6z"/>
<path class="st0" d="M1184.8,602.7v-26.6c0-3.3-0.8-5.8-2.3-7.5c-1.5-1.7-3.9-2.5-7.2-2.5c-4.3,0-7.4,1.2-9.4,3.5
	c-2,2.3-3,6.2-3,11.5v21.5h-6.2v-41h5.1l1,5.6h0.3c1.3-2,3.1-3.6,5.4-4.7c2.3-1.1,4.9-1.7,7.7-1.7c4.9,0,8.7,1.2,11.2,3.6
	c2.5,2.4,3.7,6.2,3.7,11.4v26.8H1184.8z"/>
</svg>
